<?xml version="1.0" standalone="no"?>
<!DOCTYPE svg PUBLIC "-//W3C//DTD SVG 20010904//EN"
 "http://www.w3.org/TR/2001/REC-SVG-20010904/DTD/svg10.dtd">
<svg version="1.0" xmlns="http://www.w3.org/2000/svg"
 width="260.000000pt" height="260.000000pt" viewBox="0 0 260.000000 260.000000"
 preserveAspectRatio="xMidYMid meet">
<metadata>
Created by potrace 1.14, written by Peter Selinger 2001-2017
</metadata>
<g transform="translate(0.000000,260.000000) scale(0.100000,-0.100000)"
fill="#000000" stroke="none">
<path d="M302 1633 c61 -103 113 -195 115 -204 3 -11 -44 -105 -116 -230 -67
-116 -121 -213 -121 -215 0 -3 50 -3 111 -2 l112 3 92 165 92 165 61 3 62 3 0
-171 0 -170 95 0 95 0 0 170 0 170 63 0 64 0 93 -170 93 -170 115 0 114 0 -14
23 c-8 12 -65 110 -127 219 l-113 196 116 197 c64 109 116 200 116 202 0 2
-46 2 -102 1 l-102 -3 -92 -165 -92 -165 -66 -3 -66 -3 0 171 0 170 -95 0 -95
0 0 -170 0 -170 -63 0 -64 0 -93 170 -94 170 -102 0 -103 0 111 -187z"/>
<path d="M1656 1774 c-3 -26 -6 -88 -6 -139 0 -133 -18 -300 -40 -377 -23 -76
-62 -118 -111 -118 l-29 0 0 -165 0 -165 90 0 90 0 0 85 0 85 295 0 295 0 0
-85 0 -85 90 0 90 0 0 165 0 165 -60 0 -60 0 0 340 0 340 -319 0 -318 0 -7
-46z m454 -374 l0 -260 -184 0 -185 0 21 46 c28 65 46 175 54 337 l7 137 144
0 143 0 0 -260z"/>
</g>
</svg>
